<svg viewBox="0 0 1007.5 280.01" xmlns="http://www.w3.org/2000/svg" data-name="Layer 1" id="Layer_1">
  <defs>
    <style>
      .cls-1 {
        fill: #007ae5;
      }
    </style>
  </defs>
  <path d="M820.78,76.77c-25.96-15.45-62.19-12.66-83.94,8.94h-.28V11.9h-31.3v127.58c0,20.67,2.77,33.29,10.05,46.35,6.6,11.86,16.33,21.07,27.77,27.65,20.51,11.79,52.97,14.19,78.01,0,26.24-14.86,37.82-41.82,37.82-68.08s-11.54-54.5-38.13-68.63h0ZM804.49,190.14c-6.43,4.08-14.49,6.25-22.49,6.25s-16.26-2.37-22.77-6.54c-11.13-7.13-21.37-21.27-21.37-44.45,0-10.47,1.86-19.54,5.58-27.23,7.72-14.94,21.72-24.17,38.56-24.17,15.29,0,30.72,8.16,38.54,24.31,3.71,7.69,5.86,16.63,5.86,27.09,0,22.37-10.37,37.41-21.91,44.74h0Z" class="cls-1"></path>
  <path d="M938.28,279.99c-9.77,0-19.12-1.58-28.05-4.72-8.84-3.06-16.47-7.69-22.89-13.89-6.33-6.21-10.75-13.8-13.26-22.78l29.03-6.95c1.49,4.82,4.05,8.84,7.68,12.09,3.62,3.24,7.81,5.65,12.56,7.22,4.83,1.57,9.81,2.36,14.93,2.36,8.28,0,15.16-1.58,20.65-4.72,5.59-3.15,9.73-7.55,12.42-13.2,2.7-5.56,4.05-11.99,4.05-19.31v-21.81h-.56c-4.56,7.69-10.88,13.71-18.98,18.06-8,4.35-17.44,6.53-28.33,6.53-11.63,0-21.67-2.31-30.14-6.95-8.47-4.63-14.93-11.39-19.4-20.28-4.37-8.98-6.56-19.91-6.56-32.79v-85.44h31.96v81.55c0,11.39,2.93,20.24,8.79,26.54,5.86,6.21,14.1,9.31,24.7,9.31,7.91,0,14.8-1.67,20.66-5,5.86-3.43,10.28-8.06,13.26-13.89,3.07-5.84,4.6-12.41,4.6-19.73v-78.77h32.1v142.54c0,12.78-2.79,23.99-8.37,33.62-5.59,9.72-13.63,17.23-24.15,22.51-10.51,5.28-22.74,7.92-36.7,7.92v-.02h0Z" class="cls-1"></path>
  <path d="M615.84,223.2c-14.23,0-27.21-3.24-38.93-9.73-11.73-6.57-20.98-15.79-27.78-27.65-6.7-11.95-10.05-25.42-10.05-40.43s3.3-28.57,9.91-40.43c6.7-11.86,15.91-21.12,27.64-27.79,11.81-6.67,24.93-10,39.35-10s27.73,3.33,39.36,10c11.63,6.58,20.75,15.79,27.35,27.65,6.7,11.76,10.05,25.29,10.05,40.57s-3.39,28.71-10.19,40.57c-6.7,11.76-15.91,20.93-27.63,27.51-11.63,6.48-24.65,9.73-39.08,9.73h0ZM615.84,196.39c8.28,0,15.77-2.08,22.47-6.25,6.7-4.17,12.01-10.09,15.91-17.78,4-7.69,6-16.67,6-26.95s-1.95-19.4-5.86-27.09c-3.91-7.78-9.21-13.75-15.91-17.92-6.7-4.26-14.23-6.39-22.61-6.39s-15.77,2.13-22.46,6.39c-6.7,4.17-12.05,10.14-16.05,17.92-3.91,7.78-5.87,16.81-5.87,27.09s2,19.26,6,26.95,9.35,13.62,16.05,17.78c6.7,4.17,14.15,6.25,22.33,6.25Z" class="cls-1"></path>
  <path d="M495.18,17.81v142.9c0,11.11-3.05,19.57-9.15,25.36-6.01,5.7-14.64,8.55-25.9,8.55-23.34,0-35.02-9.18-38.14-26.98l-30.5,7.37c1.2,7.45,3.6,13.51,6.86,19.47,5.26,9.34,12.59,16.48,22.54,21.43,9.95,4.86,23.07,7.57,38.55,7.28,14.16-.26,26.27-2.43,36.31-7.28,10.04-4.95,17.68-12.1,22.94-21.43,5.26-9.34,7.88-20.6,7.88-33.76V17.82h-31.39,0Z" class="cls-1"></path>
  <path d="M120.7,102.33C93.14,24.16,60.05,8.03,42.44,3.03-24.15-15.88-18.68,100.8,104.23,125.9c61.06,171.77,175.63,91.93,237.44-33.82,35.27-71.74,7.14-110.86-45.45-83.11-44.85,23.68-104.58,95.38-175.52,93.36h0ZM46.48,69.06c-28.23-34.41,12.77-75.97,52.13,32.19-11.6-3.12-32.51-8.26-52.13-32.19h0ZM128.34,126.69c84.18-3.24,150.62-93.48,179.04-87.31,43.65,9.48-114.71,279.75-179.04,87.31h0Z" class="cls-1"></path>
</svg>